<svg width="206" height="50" viewBox="0 0 206 50" fill="none" xmlns="http://www.w3.org/2000/svg">
<rect x="34.1016" y="11.4897" width="4.17847" height="22.9356" fill="#0B7B43"/>
<path d="M25.7446 16.9506L29.9231 16.9506L29.9231 34.4253L25.7446 34.4253L25.7446 16.9506ZM9.03076 27.8723L13.2092 27.8723L13.2092 34.4253L9.03076 34.4253L9.03076 27.8723ZM17.3877 22.4114L21.5662 22.4114L21.5662 34.4253L17.3877 34.4253L17.3877 22.4114Z" fill="#0B7B43"/>
<path d="M47.2642 33.5286V18.9831H53.0881C54.1581 18.9831 55.0507 19.1417 55.7656 19.459C56.4806 19.7762 57.018 20.2165 57.3778 20.78C57.7377 21.3387 57.9176 21.9826 57.9176 22.7118C57.9176 23.28 57.804 23.7795 57.5767 24.2104C57.3494 24.6365 57.0369 24.9869 56.6392 25.2615C56.2462 25.5314 55.7964 25.7232 55.2898 25.8368V25.9788C55.8438 26.0025 56.3622 26.1588 56.8452 26.4476C57.3329 26.7364 57.7282 27.1413 58.0312 27.6621C58.3343 28.1782 58.4858 28.7937 58.4858 29.5087C58.4858 30.2805 58.294 30.9694 57.9105 31.5754C57.5317 32.1768 56.9706 32.6526 56.2273 33.003C55.4839 33.3534 54.5677 33.5286 53.4787 33.5286H47.2642ZM50.3395 31.0144H52.8466C53.7036 31.0144 54.3286 30.851 54.7216 30.5243C55.1146 30.1929 55.3111 29.7525 55.3111 29.2033C55.3111 28.8008 55.214 28.4457 55.0199 28.1379C54.8258 27.8302 54.5488 27.5887 54.1889 27.4135C53.8338 27.2383 53.41 27.1507 52.9176 27.1507H50.3395V31.0144ZM50.3395 25.0698H52.6193C53.0407 25.0698 53.4148 24.9964 53.7415 24.8496C54.0729 24.6981 54.3333 24.485 54.5227 24.2104C54.7169 23.9358 54.8139 23.6067 54.8139 23.2232C54.8139 22.6976 54.6269 22.2738 54.2528 21.9519C53.8835 21.6299 53.358 21.4689 52.6761 21.4689H50.3395V25.0698ZM73.8533 26.2558C73.8533 27.842 73.5527 29.1914 72.9513 30.3041C72.3548 31.4168 71.5404 32.2667 70.5082 32.8538C69.4807 33.4362 68.3254 33.7274 67.0423 33.7274C65.7496 33.7274 64.5896 33.4339 63.5621 32.8467C62.5347 32.2596 61.7227 31.4097 61.1261 30.297C60.5295 29.1843 60.2312 27.8373 60.2312 26.2558C60.2312 24.6697 60.5295 23.3202 61.1261 22.2075C61.7227 21.0949 62.5347 20.2473 63.5621 19.6649C64.5896 19.0778 65.7496 18.7842 67.0423 18.7842C68.3254 18.7842 69.4807 19.0778 70.5082 19.6649C71.5404 20.2473 72.3548 21.0949 72.9513 22.2075C73.5527 23.3202 73.8533 24.6697 73.8533 26.2558ZM70.7354 26.2558C70.7354 25.2284 70.5816 24.3619 70.2738 23.6564C69.9708 22.9509 69.5423 22.4159 68.9883 22.0513C68.4343 21.6867 67.7856 21.5044 67.0423 21.5044C66.2989 21.5044 65.6502 21.6867 65.0962 22.0513C64.5423 22.4159 64.1114 22.9509 63.8036 23.6564C63.5006 24.3619 63.3491 25.2284 63.3491 26.2558C63.3491 27.2833 63.5006 28.1498 63.8036 28.8553C64.1114 29.5608 64.5423 30.0958 65.0962 30.4604C65.6502 30.825 66.2989 31.0073 67.0423 31.0073C67.7856 31.0073 68.4343 30.825 68.9883 30.4604C69.5423 30.0958 69.9708 29.5608 70.2738 28.8553C70.5816 28.1498 70.7354 27.2833 70.7354 26.2558ZM76.1314 33.5286V18.9831H81.87C82.9685 18.9831 83.906 19.1796 84.6825 19.5726C85.4638 19.9609 86.058 20.5125 86.4652 21.2274C86.8771 21.9377 87.0831 22.7734 87.0831 23.7345C87.0831 24.7004 86.8748 25.5314 86.4581 26.2274C86.0414 26.9187 85.4377 27.449 84.647 27.8183C83.861 28.1877 82.9093 28.3723 81.7919 28.3723H77.9496V25.9007H81.2947C81.8819 25.9007 82.3696 25.8202 82.7578 25.6592C83.1461 25.4983 83.4349 25.2568 83.6243 24.9348C83.8184 24.6128 83.9155 24.2127 83.9155 23.7345C83.9155 23.2516 83.8184 22.8444 83.6243 22.5129C83.4349 22.1815 83.1437 21.9306 82.7507 21.7601C82.3625 21.5849 81.8724 21.4973 81.2805 21.4973H79.2067V33.5286H76.1314ZM83.9865 26.9092L87.6016 33.5286H84.2067L80.6697 26.9092H83.9865ZM97.147 23.1663C97.0902 22.5934 96.8464 22.1484 96.4155 21.8311C95.9846 21.5139 95.3999 21.3553 94.6612 21.3553C94.1593 21.3553 93.7356 21.4263 93.3899 21.5683C93.0443 21.7056 92.7791 21.8974 92.5945 22.1436C92.4145 22.3898 92.3246 22.6692 92.3246 22.9817C92.3151 23.2421 92.3696 23.4694 92.4879 23.6635C92.611 23.8576 92.7791 24.0257 92.9922 24.1678C93.2053 24.3051 93.4515 24.4258 93.7308 24.53C94.0102 24.6294 94.3085 24.7146 94.6257 24.7857L95.9325 25.0982C96.567 25.2402 97.1494 25.4296 97.6797 25.6663C98.21 25.9031 98.6693 26.1943 99.0575 26.5399C99.4458 26.8856 99.7464 27.2928 99.9595 27.7615C100.177 28.2303 100.289 28.7677 100.293 29.3737C100.289 30.2639 100.061 31.0357 99.6115 31.6891C99.1664 32.3378 98.5225 32.842 97.6797 33.2019C96.8416 33.557 95.8307 33.7345 94.647 33.7345C93.4728 33.7345 92.45 33.5546 91.5788 33.1948C90.7124 32.8349 90.0353 32.3022 89.5476 31.5967C89.0646 30.8865 88.8113 30.0082 88.7876 28.9618H91.7635C91.7966 29.4495 91.9363 29.8567 92.1825 30.1834C92.4335 30.5054 92.7673 30.7492 93.1839 30.9149C93.6054 31.0759 94.0812 31.1564 94.6115 31.1564C95.1323 31.1564 95.5845 31.0806 95.968 30.9291C96.3563 30.7776 96.657 30.5669 96.87 30.297C97.0831 30.0271 97.1896 29.717 97.1896 29.3666C97.1896 29.0399 97.0926 28.7653 96.8984 28.5428C96.709 28.3202 96.4297 28.1308 96.0604 27.9746C95.6958 27.8183 95.2483 27.6763 94.718 27.5485L93.1342 27.1507C91.9079 26.8524 90.9396 26.386 90.2294 25.7516C89.5192 25.1171 89.1664 24.2625 89.1712 23.1877C89.1664 22.307 89.4008 21.5376 89.8743 20.8794C90.3525 20.2213 91.0083 19.7075 91.8416 19.3382C92.675 18.9689 93.6219 18.7842 94.6825 18.7842C95.7621 18.7842 96.7043 18.9689 97.5092 19.3382C98.3189 19.7075 98.9486 20.2213 99.3984 20.8794C99.8482 21.5376 100.08 22.2999 100.094 23.1663H97.147ZM104.537 33.5286H101.241L106.263 18.9831H110.226L115.24 33.5286H111.945L108.301 22.307H108.188L104.537 33.5286ZM104.331 27.8112H112.115V30.2118H104.331V27.8112ZM129.51 23.1663C129.453 22.5934 129.21 22.1484 128.779 21.8311C128.348 21.5139 127.763 21.3553 127.025 21.3553C126.523 21.3553 126.099 21.4263 125.753 21.5683C125.408 21.7056 125.142 21.8974 124.958 22.1436C124.778 22.3898 124.688 22.6692 124.688 22.9817C124.678 23.2421 124.733 23.4694 124.851 23.6635C124.974 23.8576 125.142 24.0257 125.355 24.1678C125.569 24.3051 125.815 24.4258 126.094 24.53C126.373 24.6294 126.672 24.7146 126.989 24.7857L128.296 25.0982C128.93 25.2402 129.513 25.4296 130.043 25.6663C130.573 25.9031 131.033 26.1943 131.421 26.5399C131.809 26.8856 132.11 27.2928 132.323 27.7615C132.541 28.2303 132.652 28.7677 132.657 29.3737C132.652 30.2639 132.425 31.0357 131.975 31.6891C131.53 32.3378 130.886 32.842 130.043 33.2019C129.205 33.557 128.194 33.7345 127.01 33.7345C125.836 33.7345 124.813 33.5546 123.942 33.1948C123.076 32.8349 122.399 32.3022 121.911 31.5967C121.428 30.8865 121.175 30.0082 121.151 28.9618H124.127C124.16 29.4495 124.3 29.8567 124.546 30.1834C124.797 30.5054 125.131 30.7492 125.547 30.9149C125.969 31.0759 126.444 31.1564 126.975 31.1564C127.496 31.1564 127.948 31.0806 128.331 30.9291C128.72 30.7776 129.02 30.5669 129.233 30.297C129.446 30.0271 129.553 29.717 129.553 29.3666C129.553 29.0399 129.456 28.7653 129.262 28.5428C129.072 28.3202 128.793 28.1308 128.424 27.9746C128.059 27.8183 127.612 27.6763 127.081 27.5485L125.498 27.1507C124.271 26.8524 123.303 26.386 122.593 25.7516C121.882 25.1171 121.53 24.2625 121.534 23.1877C121.53 22.307 121.764 21.5376 122.238 20.8794C122.716 20.2213 123.372 19.7075 124.205 19.3382C125.038 18.9689 125.985 18.7842 127.046 18.7842C128.125 18.7842 129.068 18.9689 129.873 19.3382C130.682 19.7075 131.312 20.2213 131.762 20.8794C132.212 21.5376 132.444 22.2999 132.458 23.1663H129.51ZM133.873 18.9831H137.317L140.634 25.2473H140.776L144.093 18.9831H147.538L142.232 28.3865V33.5286H139.178V28.3865L133.873 18.9831ZM149.217 33.5286V18.9831H154.956C156.054 18.9831 156.992 19.1796 157.768 19.5726C158.55 19.9609 159.144 20.5125 159.551 21.2274C159.963 21.9377 160.169 22.7734 160.169 23.7345C160.169 24.7004 159.961 25.5314 159.544 26.2274C159.127 26.9187 158.524 27.449 157.733 27.8183C156.947 28.1877 155.995 28.3723 154.878 28.3723H151.036V25.9007H154.381C154.968 25.9007 155.455 25.8202 155.844 25.6592C156.232 25.4983 156.521 25.2568 156.71 24.9348C156.904 24.6128 157.001 24.2127 157.001 23.7345C157.001 23.2516 156.904 22.8444 156.71 22.5129C156.521 22.1815 156.23 21.9306 155.837 21.7601C155.448 21.5849 154.958 21.4973 154.366 21.4973H152.293V33.5286H149.217ZM157.072 26.9092L160.688 33.5286H157.293L153.756 26.9092H157.072ZM165.418 18.9831V33.5286H162.342V18.9831H165.418ZM170.455 33.5286H167.159L172.181 18.9831H176.144L181.158 33.5286H177.863L174.219 22.307H174.105L170.455 33.5286ZM170.249 27.8112H178.033V30.2118H170.249V27.8112Z" fill="white"/>
<path d="M34.873 2.74L26.1235 4.54558L28.2825 6.32886L1.43216 28.8588L4.36129 31.2513L31.2116 8.72142L33.6831 10.1603L34.873 2.74Z" fill="black"/>
</svg>
