<svg width="17" height="16" viewBox="0 0 17 16" fill="none" xmlns="http://www.w3.org/2000/svg">
<g clip-path="url(#clip0_145_475)">
<mask id="mask0_145_475" style="mask-type:luminance" maskUnits="userSpaceOnUse" x="0" y="0" width="17" height="16">
<path d="M8.5 16C12.9183 16 16.5 12.4183 16.5 8C16.5 3.58172 12.9183 0 8.5 0C4.08172 0 0.5 3.58172 0.5 8C0.5 12.4183 4.08172 16 8.5 16Z" fill="white"/>
</mask>
<g mask="url(#mask0_145_475)">
<path d="M0.5 0H16.5V16H0.5V0Z" fill="#0052B4"/>
<path d="M8.49998 3.13126L8.75935 3.92813H9.59373L8.9156 4.41876L9.17498 5.21876L8.49685 4.72501L7.81873 5.21876L8.0781 4.41876L7.39998 3.92813H8.23748L8.49998 3.13126ZM5.05623 4.55626L5.80623 4.93751L6.39685 4.34376L6.2656 5.17188L7.01248 5.55313L6.18435 5.68438L6.0531 6.51251L5.67185 5.76251L4.84373 5.89688L5.43748 5.30313L5.05623 4.55626ZM3.63123 8.00001L4.4281 7.74063V6.90626L4.91873 7.58438L5.71873 7.32501L5.22498 8.00313L5.71873 8.68126L4.91873 8.42188L4.4281 9.10001V8.26251L3.63123 8.00001ZM5.05623 11.4438L5.43748 10.6938L4.84373 10.1031L5.67185 10.2344L6.0531 9.48751L6.18435 10.3156L7.01248 10.4469L6.26248 10.8281L6.39685 11.6563L5.8031 11.0625L5.05623 11.4438ZM8.49998 12.8688L8.2406 12.0719H7.40623L8.08435 11.5813L7.82498 10.7813L8.5031 11.275L9.18123 10.7813L8.92185 11.5813L9.59998 12.0719H8.76248L8.49998 12.8688ZM11.9437 11.4438L11.1937 11.0625L10.6031 11.6563L10.7344 10.8281L9.98748 10.4469L10.8156 10.3156L10.9469 9.48751L11.3281 10.2375L12.1562 10.1031L11.5625 10.6969L11.9437 11.4438ZM13.3687 8.00001L12.5718 8.25938V9.09376L12.0812 8.41563L11.2812 8.67501L11.775 7.99688L11.2812 7.31876L12.0812 7.57813L12.5718 6.90001V7.73751L13.3687 8.00001ZM11.9437 4.55626L11.5625 5.30626L12.1562 5.89688L11.3281 5.76563L10.9469 6.51251L10.8156 5.68438L9.98748 5.55313L10.7375 5.17188L10.6031 4.34376L11.1969 4.93751L11.9437 4.55626Z" fill="#FFDA44"/>
</g>
</g>
<defs>
<clipPath id="clip0_145_475">
<rect width="16" height="16" fill="white" transform="translate(0.5)"/>
</clipPath>
</defs>
</svg>
