<svg width="16" height="15" viewBox="0 0 16 15" fill="none" xmlns="http://www.w3.org/2000/svg">
<g clip-path="url(#clip0_145_467)">
<path d="M10.8125 10.601C10.8125 11.0217 10.6918 11.4253 10.4769 11.7228C10.262 12.0203 9.97056 12.1875 9.66667 12.1875H1.64583C1.34194 12.1875 1.05049 12.0203 0.835607 11.7228C0.620721 11.4253 0.5 11.0217 0.5 10.601V3.46154C0.5 3.04076 0.620721 2.63722 0.835607 2.33969C1.05049 2.04215 1.34194 1.875 1.64583 1.875H9.66667C9.97056 1.875 10.262 2.04215 10.4769 2.33969C10.6918 2.63722 10.8125 3.04076 10.8125 3.46154V10.601Z" fill="#E30917"/>
<path d="M5.39708 9.70877C4.73404 9.70877 4.09816 9.44538 3.62932 8.97654C3.16048 8.5077 2.89708 7.87181 2.89708 7.20877C2.89708 6.54573 3.16048 5.90984 3.62932 5.441C4.09816 4.97216 4.73404 4.70877 5.39708 4.70877C5.94292 4.70877 6.44708 4.88585 6.85833 5.18294C6.57164 4.85674 6.21868 4.59544 5.823 4.41646C5.42732 4.23748 4.99803 4.14494 4.56375 4.14502C3.75119 4.14502 2.97192 4.46781 2.39735 5.04237C1.82279 5.61694 1.5 6.39621 1.5 7.20877C1.49995 7.61114 1.57915 8.00958 1.73309 8.38134C1.88704 8.7531 2.1127 9.0909 2.3972 9.37544C2.68171 9.65998 3.01947 9.88569 3.39121 10.0397C3.76295 10.1937 4.16138 10.2729 4.56375 10.2729C5.47833 10.2729 6.29708 9.87002 6.85833 9.2346C6.43361 9.54313 5.92204 9.70914 5.39708 9.70877ZM7.0275 7.3046L8.04417 7.53877L8.13583 8.57752L8.6725 7.68335L9.68917 7.9171L9.00417 7.13044L9.54042 6.23585L8.58083 6.64419L7.89583 5.8571L7.9875 6.89627L7.0275 7.3046Z" fill="#EEEEEE"/>
</g>
<defs>
<clipPath id="clip0_145_467">
<rect width="15" height="15" fill="white" transform="translate(0.5)"/>
</clipPath>
</defs>
</svg>
