<svg width="21" height="20" viewBox="0 0 21 20" fill="none" xmlns="http://www.w3.org/2000/svg">
<g clip-path="url(#clip0_145_457)">
<mask id="mask0_145_457" style="mask-type:luminance" maskUnits="userSpaceOnUse" x="2" y="1" width="17" height="17">
<path d="M8.35098 17.5609C12.6069 18.7477 17.0191 16.2597 18.2059 12.0038C19.3927 7.74795 16.9047 3.33576 12.6488 2.14893C8.39295 0.962111 3.98076 3.45008 2.79394 7.70598C1.60711 11.9619 4.09509 16.3741 8.35098 17.5609Z" fill="white"/>
</mask>
<g mask="url(#mask0_145_457)">
<path d="M12.6488 2.14893L20.3548 4.29787L19.8176 6.22436L18.5857 6.91899L19.2804 8.15086L18.7431 10.0774L17.5113 10.772L18.2059 12.0038L17.6687 13.9303L16.4368 14.625L17.1314 15.8568L16.5942 17.7833L8.6196 16.5976L1.18224 13.4855L1.71947 11.559L2.95133 10.8643L2.2567 9.63247L2.79394 7.70598L12.6488 2.14893Z" fill="#EEEEEE"/>
<path d="M11.1484 3.8068L19.8176 6.22435L19.2804 8.15085L10.6111 5.7333L11.1484 3.8068ZM10.0739 7.65979L18.7431 10.0773L18.2059 12.0038L10.4999 9.8549L10.0739 7.65979ZM2.25671 9.63246L17.6687 13.9303L17.1314 15.8568L1.71947 11.559L2.25671 9.63246ZM1.18224 13.4854L16.5942 17.7833L16.057 19.7098L0.645004 15.4119L1.18224 13.4854Z" fill="#D80027"/>
<path d="M4.94287 0L12.6488 2.14893L10.4999 9.85491L2.79394 7.70598L4.94287 0Z" fill="#0052B4"/>
<path d="M8.53202 8.8844L10.592 8.12872L8.48487 7.54112L9.85649 9.25375L9.75667 7.05228L8.53202 8.8844ZM6.0938 8.20447L8.15375 7.44878L6.04665 6.86118L7.41827 8.57381L7.31845 6.37234L6.0938 8.20447ZM3.65558 7.52453L5.71553 6.76884L3.60843 6.18124L4.98005 7.89388L4.88023 5.69241L3.65558 7.52453ZM9.21196 6.44618L11.2719 5.6905L9.1648 5.1029L10.5364 6.81553L10.4366 4.61406L9.21196 6.44618ZM6.77374 5.76625L8.83369 5.01056L6.72658 4.42296L8.0982 6.13559L7.99839 3.93412L6.77374 5.76625ZM4.33552 5.08631L6.39547 4.33062L4.28836 3.74302L5.65998 5.45566L5.56017 3.25419L4.33552 5.08631ZM9.90029 3.97786L11.9602 3.22218L9.85313 2.63458L11.2248 4.34721L11.1249 2.14574L9.90029 3.97786ZM7.46207 3.29793L9.52202 2.54224L7.41491 1.95464L8.78653 3.66727L8.68672 1.4658L7.46207 3.29793ZM5.02385 2.61799L7.0838 1.8623L4.9767 1.2747L6.34831 2.98734L6.2485 0.785865L5.02385 2.61799Z" fill="#EEEEEE"/>
</g>
</g>
<defs>
<clipPath id="clip0_145_457">
<rect width="16" height="16" fill="white" transform="translate(4.94287) rotate(15.582)"/>
</clipPath>
</defs>
</svg>
