<svg width="29" height="31" viewBox="0 0 29 31" fill="none" xmlns="http://www.w3.org/2000/svg">
<g clip-path="url(#clip0_0_110)" filter="url(#filter0_d_0_110)">
<g filter="url(#filter1_d_0_110)">
<path opacity="0.987" fill-rule="evenodd" clip-rule="evenodd" d="M13.3134 2.09161C14.4009 1.97011 15.0444 1.97011 16.2129 2.09161C18.2813 2.39776 20.1987 3.35384 21.6879 4.82161C20.6816 5.77282 19.6885 6.73791 18.7089 7.71661C16.8329 6.12661 14.7389 5.75961 12.4269 6.61561C10.7309 7.39561 9.54987 8.65961 8.88387 10.4076C7.79554 9.59736 6.72137 8.76823 5.66188 7.92061C5.58824 7.88186 5.50415 7.86766 5.42188 7.88011C7.10487 4.63511 9.73488 2.70511 13.3119 2.09011" fill="#F44336"/>
<path opacity="0.997" fill-rule="evenodd" clip-rule="evenodd" d="M5.41889 7.88003C5.50389 7.86703 5.58439 7.88053 5.66039 7.92053C6.71989 8.76815 7.79405 9.59727 8.88239 10.4075C8.71113 11.0886 8.60317 11.7841 8.55989 12.485C8.59689 13.163 8.70439 13.8285 8.88239 14.4815L5.49989 17.174C4.02689 14.096 3.99989 10.998 5.41889 7.88003Z" fill="#FFC107"/>
<path opacity="0.999" fill-rule="evenodd" clip-rule="evenodd" d="M21.5274 20.4351C20.4742 19.5063 19.3715 18.635 18.2244 17.8251C19.3744 17.0131 20.0724 15.8991 20.3184 14.4831H14.6829V10.5696C17.9329 10.5426 21.1814 10.5701 24.4284 10.6521C25.0444 13.9971 24.3329 17.0131 22.2939 19.7001C22.0514 19.9578 21.7946 20.2031 21.5274 20.4351Z" fill="#448AFF"/>
<path opacity="0.993" fill-rule="evenodd" clip-rule="evenodd" d="M8.8825 14.4832C10.1125 17.5402 12.3675 18.9672 15.6475 18.7642C16.5683 18.6576 17.451 18.3359 18.2245 17.8252C19.3725 18.6372 20.4735 19.5072 21.5275 20.4352C19.8575 21.9358 17.7282 22.8263 15.487 22.9612C14.9778 23.0019 14.4662 23.0019 13.957 22.9612C10.139 22.5112 7.32 20.5822 5.5 17.1742L8.8825 14.4832Z" fill="#43A047"/>
</g>
</g>
<defs>
<filter id="filter0_d_0_110" x="-1.5" y="0.5" width="32" height="32" filterUnits="userSpaceOnUse" color-interpolation-filters="sRGB">
<feFlood flood-opacity="0" result="BackgroundImageFix"/>
<feColorMatrix in="SourceAlpha" type="matrix" values="0 0 0 0 0 0 0 0 0 0 0 0 0 0 0 0 0 0 127 0" result="hardAlpha"/>
<feOffset dy="4"/>
<feGaussianBlur stdDeviation="2"/>
<feComposite in2="hardAlpha" operator="out"/>
<feColorMatrix type="matrix" values="0 0 0 0 0 0 0 0 0 0 0 0 0 0 0 0 0 0 0.25 0"/>
<feBlend mode="normal" in2="BackgroundImageFix" result="effect1_dropShadow_0_110"/>
<feBlend mode="normal" in="SourceGraphic" in2="effect1_dropShadow_0_110" result="shape"/>
</filter>
<filter id="filter1_d_0_110" x="0.374512" y="2.00049" width="28.2683" height="28.9912" filterUnits="userSpaceOnUse" color-interpolation-filters="sRGB">
<feFlood flood-opacity="0" result="BackgroundImageFix"/>
<feColorMatrix in="SourceAlpha" type="matrix" values="0 0 0 0 0 0 0 0 0 0 0 0 0 0 0 0 0 0 127 0" result="hardAlpha"/>
<feOffset dy="4"/>
<feGaussianBlur stdDeviation="2"/>
<feComposite in2="hardAlpha" operator="out"/>
<feColorMatrix type="matrix" values="0 0 0 0 0 0 0 0 0 0 0 0 0 0 0 0 0 0 0.25 0"/>
<feBlend mode="normal" in2="BackgroundImageFix" result="effect1_dropShadow_0_110"/>
<feBlend mode="normal" in="SourceGraphic" in2="effect1_dropShadow_0_110" result="shape"/>
</filter>
<clipPath id="clip0_0_110">
<rect width="24" height="24" fill="white" transform="translate(2.5 0.5)"/>
</clipPath>
</defs>
</svg>
