<svg width="27" height="27" viewBox="0 0 27 27" fill="none" xmlns="http://www.w3.org/2000/svg">
<g filter="url(#filter0_d_0_128)">
<path d="M18.5469 0H8.45312C5.99373 0 4 1.99373 4 4.45312V14.5469C4 17.0063 5.99373 19 8.45312 19H18.5469C21.0063 19 23 17.0063 23 14.5469V4.45312C23 1.99373 21.0063 0 18.5469 0Z" fill="url(#paint0_radial_0_128)"/>
<path d="M18.5469 0H8.45312C5.99373 0 4 1.99373 4 4.45312V14.5469C4 17.0063 5.99373 19 8.45312 19H18.5469C21.0063 19 23 17.0063 23 14.5469V4.45312C23 1.99373 21.0063 0 18.5469 0Z" fill="url(#paint1_radial_0_128)"/>
<path d="M13.5007 2.07812C11.485 2.07812 11.232 2.08696 10.4404 2.12295C9.65027 2.15917 9.11093 2.28423 8.63904 2.46777C8.15083 2.65733 7.73677 2.91093 7.32426 3.32359C6.91138 3.73617 6.65777 4.15024 6.46763 4.63823C6.28356 5.11026 6.15836 5.64983 6.1228 6.43959C6.0874 7.23128 6.07812 7.48437 6.07812 9.50007C6.07812 11.5158 6.08703 11.768 6.12295 12.5596C6.15932 13.3497 6.28438 13.8891 6.46777 14.361C6.65748 14.8492 6.91108 15.2632 7.32374 15.6757C7.73617 16.0886 8.15024 16.3428 8.63808 16.5324C9.11033 16.7159 9.64975 16.841 10.4397 16.8772C11.2314 16.9132 11.4842 16.922 13.4998 16.922C15.5156 16.922 15.7678 16.9132 16.5594 16.8772C17.3496 16.841 17.8895 16.7159 18.3618 16.5324C18.8498 16.3428 19.2632 16.0886 19.6756 15.6757C20.0885 15.2632 20.342 14.8492 20.5322 14.3612C20.7147 13.8891 20.8399 13.3496 20.877 12.5597C20.9126 11.7681 20.9219 11.5158 20.9219 9.50007C20.9219 7.48437 20.9126 7.23143 20.877 6.43974C20.8399 5.64961 20.7147 5.11033 20.5322 4.63845C20.342 4.15024 20.0885 3.73617 19.6756 3.32359C19.2628 2.91079 18.8499 2.65718 18.3613 2.46785C17.8882 2.28423 17.3485 2.1591 16.5584 2.12295C15.7667 2.08696 15.5147 2.07812 13.4984 2.07812H13.5007ZM12.8349 3.41562C13.0325 3.41532 13.253 3.41562 13.5007 3.41562C15.4824 3.41562 15.7172 3.42275 16.4998 3.4583C17.2234 3.4914 17.6162 3.6123 17.8778 3.71391C18.2242 3.84839 18.4711 4.00922 18.7307 4.26906C18.9905 4.52883 19.1512 4.7762 19.2861 5.12258C19.3877 5.38383 19.5088 5.77659 19.5417 6.50023C19.5773 7.28264 19.585 7.51762 19.585 9.49837C19.585 11.4791 19.5773 11.7142 19.5417 12.4965C19.5086 13.2201 19.3877 13.6129 19.2861 13.8742C19.1516 14.2206 18.9905 14.4672 18.7307 14.7269C18.4709 14.9866 18.2243 15.1474 17.8778 15.2819C17.6165 15.384 17.2234 15.5046 16.4998 15.5377C15.7174 15.5732 15.4824 15.581 13.5007 15.581C11.5189 15.581 11.284 15.5732 10.5016 15.5377C9.778 15.5043 9.38524 15.3834 9.12339 15.2818C8.77709 15.1472 8.52964 14.9865 8.26988 14.7267C8.01011 14.4669 7.84936 14.2202 7.7145 13.8736C7.61289 13.6123 7.49184 13.2195 7.45889 12.4959C7.42334 11.7135 7.41621 11.4785 7.41621 9.49651C7.41621 7.5145 7.42334 7.28079 7.45889 6.49837C7.49199 5.77474 7.61289 5.38197 7.7145 5.12035C7.84906 4.77397 8.01011 4.5266 8.26995 4.26684C8.52979 4.00707 8.77709 3.84624 9.12347 3.71146C9.38509 3.60941 9.778 3.4888 10.5016 3.45555C11.1863 3.4246 11.4516 3.41532 12.8349 3.41377V3.41562ZM17.4625 4.64795C16.9708 4.64795 16.5718 5.0465 16.5718 5.53828C16.5718 6.02998 16.9708 6.4289 17.4625 6.4289C17.9542 6.4289 18.3531 6.02998 18.3531 5.53828C18.3531 5.04658 17.9542 4.64765 17.4625 4.64765V4.64795ZM13.5007 5.68857C11.3958 5.68857 9.68924 7.39516 9.68924 9.50007C9.68924 11.605 11.3958 13.3108 13.5007 13.3108C15.6056 13.3108 17.3116 11.605 17.3116 9.50007C17.3116 7.39523 15.6054 5.68857 13.5005 5.68857H13.5007ZM13.5007 7.02607C14.867 7.02607 15.9747 8.13363 15.9747 9.50007C15.9747 10.8664 14.867 11.9741 13.5007 11.9741C12.1344 11.9741 11.0267 10.8664 11.0267 9.50007C11.0267 8.13363 12.1343 7.02607 13.5007 7.02607Z" fill="white"/>
</g>
<defs>
<filter id="filter0_d_0_128" x="0" y="0" width="27" height="27" filterUnits="userSpaceOnUse" color-interpolation-filters="sRGB">
<feFlood flood-opacity="0" result="BackgroundImageFix"/>
<feColorMatrix in="SourceAlpha" type="matrix" values="0 0 0 0 0 0 0 0 0 0 0 0 0 0 0 0 0 0 127 0" result="hardAlpha"/>
<feOffset dy="4"/>
<feGaussianBlur stdDeviation="2"/>
<feComposite in2="hardAlpha" operator="out"/>
<feColorMatrix type="matrix" values="0 0 0 0 0 0 0 0 0 0 0 0 0 0 0 0 0 0 0.25 0"/>
<feBlend mode="normal" in2="BackgroundImageFix" result="effect1_dropShadow_0_128"/>
<feBlend mode="normal" in="SourceGraphic" in2="effect1_dropShadow_0_128" result="shape"/>
</filter>
<radialGradient id="paint0_radial_0_128" cx="0" cy="0" r="1" gradientUnits="userSpaceOnUse" gradientTransform="translate(9.04687 20.4634) rotate(-90) scale(18.8304 17.5138)">
<stop stop-color="#FFDD55"/>
<stop offset="0.1" stop-color="#FFDD55"/>
<stop offset="0.5" stop-color="#FF543E"/>
<stop offset="1" stop-color="#C837AB"/>
</radialGradient>
<radialGradient id="paint1_radial_0_128" cx="0" cy="0" r="1" gradientUnits="userSpaceOnUse" gradientTransform="translate(0.817426 1.36867) rotate(78.681) scale(8.4173 34.6964)">
<stop stop-color="#3771C8"/>
<stop offset="0.128" stop-color="#3771C8"/>
<stop offset="1" stop-color="#6600FF" stop-opacity="0"/>
</radialGradient>
</defs>
</svg>
