<svg width="25" height="25" viewBox="0 0 25 25" fill="none" xmlns="http://www.w3.org/2000/svg">
<g clip-path="url(#clip0_0_123)">
<g filter="url(#filter0_d_0_123)">
<path fill-rule="evenodd" clip-rule="evenodd" d="M20.2769 4.92997C20.524 4.82596 20.7945 4.79008 21.0602 4.82608C21.3259 4.86208 21.5771 4.96863 21.7876 5.13465C21.9981 5.30067 22.1603 5.52008 22.2573 5.77005C22.3542 6.02002 22.3824 6.29141 22.3389 6.55597L20.0709 20.313C19.8509 21.64 18.3949 22.401 17.1779 21.74C16.1599 21.187 14.6479 20.335 13.2879 19.446C12.6079 19.001 10.5249 17.576 10.7809 16.562C11.0009 15.695 14.5009 12.437 16.5009 10.5C17.2859 9.73897 16.9279 9.29997 16.0009 9.99997C13.6989 11.738 10.0029 14.381 8.7809 15.125C7.7029 15.781 7.1409 15.893 6.4689 15.781C5.2429 15.577 4.1059 15.261 3.1779 14.876C1.9239 14.356 1.9849 12.632 3.1769 12.13L20.2769 4.92997Z" fill="#2083CA"/>
</g>
</g>
<defs>
<filter id="filter0_d_0_123" x="-1.73999" y="4.8125" width="28.0989" height="25.1699" filterUnits="userSpaceOnUse" color-interpolation-filters="sRGB">
<feFlood flood-opacity="0" result="BackgroundImageFix"/>
<feColorMatrix in="SourceAlpha" type="matrix" values="0 0 0 0 0 0 0 0 0 0 0 0 0 0 0 0 0 0 127 0" result="hardAlpha"/>
<feOffset dy="4"/>
<feGaussianBlur stdDeviation="2"/>
<feComposite in2="hardAlpha" operator="out"/>
<feColorMatrix type="matrix" values="0 0 0 0 0 0 0 0 0 0 0 0 0 0 0 0 0 0 0.25 0"/>
<feBlend mode="normal" in2="BackgroundImageFix" result="effect1_dropShadow_0_123"/>
<feBlend mode="normal" in="SourceGraphic" in2="effect1_dropShadow_0_123" result="shape"/>
</filter>
<clipPath id="clip0_0_123">
<rect width="24" height="24" fill="white" transform="translate(0.5 0.5)"/>
</clipPath>
</defs>
</svg>
