<svg width="26" height="26" viewBox="0 0 26 26" fill="none" xmlns="http://www.w3.org/2000/svg">
<rect x="2.04321" y="2.04327" width="22.476" height="22.476" rx="3" fill="#FB9E3A"/>
<g opacity="0.9" clip-path="url(#clip0_0_83)">
<path d="M8.54069 17.6657C8.30214 17.4377 8.17922 17.1627 8.17193 16.8405C8.16464 16.5184 8.27499 16.2381 8.50299 15.9995C8.73099 15.761 9.00622 15.6379 9.32869 15.6302C9.65115 15.6226 9.93148 15.7329 10.1697 15.9613C10.4079 16.1897 10.5308 16.4647 10.5385 16.7865C10.5461 17.1082 10.4357 17.3885 10.2074 17.6275C9.97904 17.8664 9.70381 17.9895 9.3817 17.9968C9.05959 18.0041 8.77925 17.8937 8.54069 17.6657ZM8.09672 11.8645L8.07746 10.7501C9.01779 10.7289 9.93246 10.8823 10.8214 11.2105C11.7104 11.5387 12.5185 12.0506 13.2456 12.7462C13.9728 13.4419 14.5196 14.226 14.8862 15.0985C15.2528 15.9711 15.4455 16.8788 15.4643 17.8217L14.3561 17.8468C14.3381 17.0524 14.1717 16.2839 13.8568 15.5413C13.5419 14.7987 13.0798 14.1363 12.4705 13.5539C11.8612 12.9716 11.1785 12.5399 10.4225 12.259C9.66641 11.978 8.89116 11.8465 8.09672 11.8645ZM7.99253 7.26032L7.96745 6.15207C9.48006 6.11387 10.9661 6.36115 12.4255 6.89392C13.8849 7.42668 15.2164 8.26926 16.4199 9.42166C17.6234 10.5741 18.525 11.8664 19.1247 13.2988C19.7243 14.7311 20.0387 16.2042 20.0679 17.7181L18.9602 17.7426C18.9288 16.3524 18.6364 15.0088 18.0832 13.712C17.53 12.4152 16.7179 11.2546 15.647 10.2304C14.576 9.20614 13.3801 8.44756 12.0593 7.95466C10.7384 7.46175 9.38284 7.23031 7.99253 7.26032Z" fill="black"/>
</g>
<defs>
<clipPath id="clip0_0_83">
<rect width="18.3895" height="18.3895" fill="white" transform="translate(12.7058) rotate(43.7037)"/>
</clipPath>
</defs>
</svg>
